<svg xmlns="http://www.w3.org/2000/svg" fill-rule="evenodd" stroke-linejoin="round" stroke-miterlimit="2" clip-rule="evenodd" viewBox="0 0 32 32" id="curtain">
  <path d="M3 7.732v21.295l.001.012a.995.995 0 0 0 .507.831l.021.012.027.014.028.014.028.012.029.011.035.013.035.012.033.009.03.007.031.007.03.005.031.005.032.004.031.003.032.001.033.001h6.992a.99.99 0 0 0 .669-.245.995.995 0 0 0 .338-.635c.028-.217.247-2.023-.14-3.83-.258-1.201-.767-2.387-1.696-3.206.414-.428.701-.979.803-1.592 4.597-4.108 3.952-9.896 3.358-12.492h3.364c-.594 2.596-1.239 8.384 3.358 12.492.102.613.389 1.164.803 1.592-.929.819-1.438 2.005-1.696 3.206-.387 1.807-.168 3.613-.14 3.83a.995.995 0 0 0 .338.635.99.99 0 0 0 .669.245H28c.468 0 .861-.322.97-.756l.007-.032.007-.035.005-.031.004-.031.004-.032.002-.032.001-.032V7.732c.598-.346 1-.992 1-1.732V4a2 2 0 0 0-2-2H4a2 2 0 0 0-2 2v2c0 .74.402 1.386 1 1.732Zm24 15.097A2.983 2.983 0 0 1 26 23h-1c-1.899 0-2.612 1.38-2.897 2.71-.181.844-.2 1.688-.179 2.29H27v-5.171Zm-22 0V28h5.076c.021-.602.002-1.446-.179-2.29C9.612 24.38 8.899 23 7 23H6c-.351 0-.687-.06-1-.171ZM9 20a1 1 0 0 1-1 1H6a1 1 0 0 1 0-2h2a1 1 0 0 1 1 1Zm14 0a1 1 0 0 1 1-1h2a1 1 0 0 1 0 2h-2a1 1 0 0 1-1-1ZM12.268 8H5v9.171A2.983 2.983 0 0 1 6 17h2c.987 0 1.864.478 2.411 1.216C13.675 14.539 12.748 9.724 12.268 8ZM27 17.171V8h-7.268c-.48 1.724-1.407 6.539 1.857 10.216A2.996 2.996 0 0 1 24 17h2c.351 0 .687.06 1 .171Zm-4.987-7.332s-.449 2.949 1.244 4.83a1 1 0 0 0 1.486-1.338c-1.106-1.229-.756-3.17-.756-3.17a1 1 0 0 0-1.974-.322Zm-14 .322s.35 1.941-.756 3.17a1 1 0 0 0 1.486 1.338c1.693-1.881 1.244-4.83 1.244-4.83a1 1 0 0 0-1.974.322ZM19.019 6H28V4H4v2H19.019Z"></path>
</svg>
