<svg xmlns="http://www.w3.org/2000/svg" viewBox="0 0 64 64" id="manikin">
  <path d="m41.1 11.3 1.1-2.5c0-.1.1-.8-.6-.8H38c-1.7 0-3-1.3-3-3V2.9c0-.4-.4-.9-1-.9h-4.1c-.4 0-.9.5-.9.9V5c0 1.7-1.3 3-3 3h-3.5c-.8.1-.7.6-.6.8l1.1 2.5c2.5 5.9 3 7.1 1.2 13.9l-2.6 9.6c-.1.2 0 .7.5.7h19.8c.6 0 .7-.6.6-.8l-2.6-9.5c-1.8-6.7-1.3-8 1.2-13.9zM28 33.6h-3c-.6 0-1.1-.6-.9-1.2l.6-2.1c.2-.5.7-.9 1.3-.7 1.4.5.5 2 .5 2H28c.5 0 1 .5 1 1 0 .6-.5 1-1 1zM6 60H2c-.6 0-1 .4-1 1s.4 1 1 1h4c.6 0 1-.4 1-1s-.4-1-1-1zm34 0h-1.4c-1.2-2-3.3-3.3-5.6-3.6V37.6h-2v18.8c-2.3.3-4.3 1.6-5.6 3.6H10c-.5 0-1 .5-1 1s.5 1 1 1h30c.5 0 1-.5 1-1s-.5-1-1-1zm22 0H44c-.6 0-1 .4-1 1s.4 1 1 1h18c.6 0 1-.4 1-1s-.4-1-1-1z"></path>
</svg>
